# xmcd CD database file
#
# Track frame offsets:
#	200
#	13005
#	31580
#	53270
#
# Disc length: 1148 seconds
#
# Revision: 1
# Processed by: cddbd v1.4PL0 Copyright (c) Steve Scherf et al.
# Submitted via: CDex 1.40Release
#
DISCID=1c047a04
DTITLE=Gary Moore - Too Tired(Limited Edition Single Featuring Albert Collins)
DYEAR=1990
DGENRE=Blues
TTITLE0=Too Tired
TTITLE1=Oh Pretty Woman(Live At Hammersmith Odeon)
TTITLE2=Texas Strut
TTITLE3=Cold Cold Feeling(Live At Hammersmith Odeon)
EXTD=YEAR: 1990 ID3G: 0
EXTT0=
EXTT1=
EXTT2=
EXTT3=
PLAYORDER=
